<svg width="24" height="24" viewBox="0 0 24 24" fill="none" xmlns="http://www.w3.org/2000/svg">
<path d="M13 2.05V0H11V2.05C6.28 2.52 2.52 6.28 2.05 11H0V13H2.05C2.52 17.72 6.28 21.48 11 21.95V24H13V21.95C17.72 21.48 21.48 17.72 21.95 13H24V11H21.95C21.48 6.28 17.72 2.52 13 2.05ZM13 19.93V18H11V19.93C9.24011 19.7065 7.60439 18.9045 6.34996 17.65C5.09553 16.3956 4.29352 14.7599 4.07 13H6V11H4.07C4.29352 9.24011 5.09553 7.60439 6.34996 6.34996C7.60439 5.09553 9.24011 4.29352 11 4.07V6H13V4.07C16.61 4.52 19.48 7.39 19.93 11H18V13H19.93C19.7065 14.7599 18.9045 16.3956 17.65 17.65C16.3956 18.9045 14.7599 19.7065 13 19.93Z" fill="#263141"/>
<path d="M12 8C9.79 8 8 9.79 8 12C8 14.21 9.79 16 12 16C14.21 16 16 14.21 16 12C16 9.79 14.21 8 12 8ZM12 14C10.9 14 10 13.1 10 12C10 10.9 10.9 10 12 10C13.1 10 14 10.9 14 12C14 13.1 13.1 14 12 14Z" fill="#303030"/>
</svg>
